<?xml version="1.0" encoding="utf-8"?>
<!-- Generator: Adobe Illustrator 23.0.1, SVG Export Plug-In . SVG Version: 6.00 Build 0)  -->
<svg version="1.1" id="Layer_1" xmlns="http://www.w3.org/2000/svg" xmlns:xlink="http://www.w3.org/1999/xlink" x="0px" y="0px"
	 viewBox="0 0 288 288" style="enable-background:new 0 0 288 288;" xml:space="preserve">
<style type="text/css">
	.st0{fill:none;}
	.st1{fill:#231F20;}
</style>
<g>
	<polygon class="st0" points="0,159.3 0,178.6 178.6,0 158.7,0 159,0.3 	"/>
	<polygon class="st0" points="0,91.7 0,111 111,0 91.1,0 91.4,0.3 	"/>
	<polygon class="st0" points="0,193.2 0,212.5 212.5,0 192.6,0 192.9,0.3 	"/>
	<polygon class="st0" points="288,288 288,277.3 277.3,288 	"/>
	<polygon class="st0" points="0,125.5 0,144.8 144.8,0 124.9,0 125.2,0.3 	"/>
	<polygon class="st0" points="0,57.8 0,77.1 77.1,0 57.2,0 57.5,0.3 	"/>
	<polygon class="st0" points="9.5,0 0,0 0,9.5 	"/>
	<polygon class="st0" points="93.7,288 287.1,94.5 288,95.4 288,74.3 74.3,288 	"/>
	<polygon class="st0" points="0,260.8 0,280.1 280.2,0 260.2,0 260.5,0.3 	"/>
	<polygon class="st0" points="59.8,288 287.1,60.7 288,61.6 288,40.5 40.5,288 	"/>
	<polygon class="st0" points="0,227 0,246.3 246.3,0 226.4,0 226.7,0.3 	"/>
	<polygon class="st0" points="26,288 287.1,26.9 288,27.8 288,6.7 6.7,288 	"/>
	<polygon class="st0" points="127.5,288 287.1,128.4 288,129.3 288,108.2 108.2,288 	"/>
	<polygon class="st0" points="262.8,288 287.1,263.7 288,264.6 288,243.5 243.5,288 	"/>
	<polygon class="st0" points="229,288 287.1,229.9 288,230.8 288,209.7 209.7,288 	"/>
	<polygon class="st0" points="195.2,288 287.1,196 288,196.9 288,175.8 175.8,288 	"/>
	<polygon class="st0" points="0,24 0,43.3 43.3,0 23.4,0 23.7,0.3 	"/>
	<polygon class="st0" points="161.3,288 287.1,162.2 288,163.1 288,142 142,288 	"/>
	<polygon class="st1" points="262.8,288 277.3,288 288,277.3 288,264.6 287.1,263.7 	"/>
	<polygon class="st1" points="229,288 243.5,288 288,243.5 288,230.8 287.1,229.9 	"/>
	<polygon class="st1" points="195.2,288 209.7,288 288,209.7 288,196.9 287.1,196 	"/>
	<polygon class="st1" points="161.3,288 175.8,288 288,175.8 288,163.1 287.1,162.2 	"/>
	<polygon class="st1" points="127.5,288 142,288 288,142 288,129.3 287.1,128.4 	"/>
	<polygon class="st1" points="93.7,288 108.2,288 288,108.2 288,95.4 287.1,94.5 	"/>
	<polygon class="st1" points="59.8,288 74.3,288 288,74.3 288,61.6 287.1,60.7 	"/>
	<polygon class="st1" points="26,288 40.5,288 288,40.5 288,27.8 287.1,26.9 	"/>
	<polygon class="st1" points="0,288 6.7,288 288,6.7 288,0 280.2,0 0,280.1 	"/>
	<polygon class="st1" points="0,260.8 260.5,0.3 260.2,0 246.3,0 0,246.3 	"/>
	<polygon class="st1" points="0,227 226.7,0.3 226.4,0 212.5,0 0,212.5 	"/>
	<polygon class="st1" points="0,193.2 192.9,0.3 192.6,0 178.6,0 0,178.6 	"/>
	<polygon class="st1" points="0,159.3 159,0.3 158.7,0 144.8,0 0,144.8 	"/>
	<polygon class="st1" points="0,125.5 125.2,0.3 124.9,0 111,0 0,111 	"/>
	<polygon class="st1" points="0,91.7 91.4,0.3 91.1,0 77.1,0 0,77.1 	"/>
	<polygon class="st1" points="0,57.8 57.5,0.3 57.2,0 43.3,0 0,43.3 	"/>
	<polygon class="st1" points="0,24 23.7,0.3 23.4,0 9.5,0 0,9.5 	"/>
</g>
<g>
	<polygon class="st0" points="1,159.3 1,178.6 179.6,0 159.7,0 160,0.3 	"/>
	<polygon class="st0" points="1,91.7 1,111 112,0 92.1,0 92.4,0.3 	"/>
	<polygon class="st0" points="1,193.2 1,212.5 213.5,0 193.6,0 193.9,0.3 	"/>
	<polygon class="st0" points="289,288 289,277.3 278.3,288 	"/>
	<polygon class="st0" points="1,125.5 1,144.8 145.8,0 125.9,0 126.2,0.3 	"/>
	<polygon class="st0" points="1,57.8 1,77.1 78.1,0 58.2,0 58.5,0.3 	"/>
	<polygon class="st0" points="10.5,0 1,0 1,9.5 	"/>
	<polygon class="st0" points="94.7,288 288.1,94.5 289,95.4 289,74.3 75.3,288 	"/>
	<polygon class="st0" points="1,260.8 1,280.1 281.2,0 261.2,0 261.5,0.3 	"/>
	<polygon class="st0" points="60.8,288 288.1,60.7 289,61.6 289,40.5 41.5,288 	"/>
	<polygon class="st0" points="1,227 1,246.3 247.3,0 227.4,0 227.7,0.3 	"/>
	<polygon class="st0" points="27,288 288.1,26.9 289,27.8 289,6.7 7.7,288 	"/>
	<polygon class="st0" points="128.5,288 288.1,128.4 289,129.3 289,108.2 109.2,288 	"/>
	<polygon class="st0" points="263.8,288 288.1,263.7 289,264.6 289,243.5 244.5,288 	"/>
	<polygon class="st0" points="230,288 288.1,229.9 289,230.8 289,209.7 210.7,288 	"/>
	<polygon class="st0" points="196.2,288 288.1,196 289,196.9 289,175.8 176.8,288 	"/>
	<polygon class="st0" points="1,24 1,43.3 44.3,0 24.4,0 24.7,0.3 	"/>
	<polygon class="st0" points="162.3,288 288.1,162.2 289,163.1 289,142 143,288 	"/>
	<polygon class="st1" points="263.8,288 278.3,288 289,277.3 289,264.6 288.1,263.7 	"/>
	<polygon class="st1" points="230,288 244.5,288 289,243.5 289,230.8 288.1,229.9 	"/>
	<polygon class="st1" points="196.2,288 210.7,288 289,209.7 289,196.9 288.1,196 	"/>
	<polygon class="st1" points="162.3,288 176.8,288 289,175.8 289,163.1 288.1,162.2 	"/>
	<polygon class="st1" points="128.5,288 143,288 289,142 289,129.3 288.1,128.4 	"/>
	<polygon class="st1" points="94.7,288 109.2,288 289,108.2 289,95.4 288.1,94.5 	"/>
	<polygon class="st1" points="60.8,288 75.3,288 289,74.3 289,61.6 288.1,60.7 	"/>
	<polygon class="st1" points="27,288 41.5,288 289,40.5 289,27.8 288.1,26.9 	"/>
	<polygon class="st1" points="1,288 7.7,288 289,6.7 289,0 281.2,0 1,280.1 	"/>
	<polygon class="st1" points="1,260.8 261.5,0.3 261.2,0 247.3,0 1,246.3 	"/>
	<polygon class="st1" points="1,227 227.7,0.3 227.4,0 213.5,0 1,212.5 	"/>
	<polygon class="st1" points="1,193.2 193.9,0.3 193.6,0 179.6,0 1,178.6 	"/>
	<polygon class="st1" points="1,159.3 160,0.3 159.7,0 145.8,0 1,144.8 	"/>
	<polygon class="st1" points="1,125.5 126.2,0.3 125.9,0 112,0 1,111 	"/>
	<polygon class="st1" points="1,91.7 92.4,0.3 92.1,0 78.1,0 1,77.1 	"/>
	<polygon class="st1" points="1,57.8 58.5,0.3 58.2,0 44.3,0 1,43.3 	"/>
	<polygon class="st1" points="1,24 24.7,0.3 24.4,0 10.5,0 1,9.5 	"/>
</g>
</svg>
